<svg width="351" height="392" viewBox="0 0 351 392" fill="none" xmlns="http://www.w3.org/2000/svg">
<path d="M350.119 142.415C350.094 138.932 349.997 135.4 349.391 131.966C347.863 123.356 346.407 114.697 344.2 106.225C341.369 95.3874 335.879 85.5542 326.305 78.475C312.898 68.5689 297.559 65.4342 280.537 69.0954C268.02 71.7926 256.918 77.1385 246.042 83.0999C240.858 85.943 235.651 88.7698 229.457 89.4502C223.983 90.0577 219.988 86.7287 220.821 81.7149C221.274 79.0095 222.341 76.2232 223.869 73.8743C225.899 70.7477 228.349 67.7427 231.139 65.1507C236.823 59.8859 242.241 54.0864 248.896 50.077C256.206 45.6707 264.688 42.8115 272.863 39.7659C284.928 35.2786 287.305 34.3066 299.952 30.6131C305.912 28.8717 312.72 27.2436 318.825 26.061C328.035 24.271 330.849 23.9146 340.084 22.2379C341.822 21.922 343.601 21.7033 345.251 21.1687C345.962 20.9338 346.302 20.3426 346.415 19.6622C346.504 19.16 346.245 18.1556 345.582 17.8154C345 17.5157 344.143 17.1755 343.464 16.9163C319.707 7.68255 306.655 3.64074 281.03 1.35659C273.26 0.668105 265.424 -0.133777 257.653 0.133517C245.419 0.546608 233.209 1.81828 220.991 2.72546C211.676 3.42204 203.137 6.33798 194.937 10.2745C185.104 14.9967 176.509 21.2254 168.932 28.5882C159.415 37.8382 149.776 47.0072 140.825 56.7107C135.577 62.3968 131.55 69.0387 127.03 75.2836C121.733 82.5978 113.752 83.0756 107.615 76.3366C105.828 74.3764 104.202 72.2867 102.488 70.2617C94.6607 60.9874 85.8307 52.7823 73.9683 47.8009C68.0815 45.3224 61.9684 43.2245 55.4833 43.7348C45.3756 44.5367 36.966 48.9997 29.8097 55.4472C19.9204 64.357 13.9043 75.4051 10.0148 87.3605C7.59707 94.788 6.21434 102.523 4.75883 110.178C3.70763 115.686 3.1982 121.282 2.63217 126.855C2.25212 130.573 2.20361 134.323 1.95294 138.057C1.49202 145.015 0.667236 151.973 0.578288 158.93C0.359962 177.268 0.384221 195.598 0.432738 213.936C0.44891 219.898 0.772356 225.859 1.05537 231.821C1.15241 233.935 1.5082 236.033 1.78313 238.139C2.60791 244.351 3.48122 250.564 4.29792 256.776C5.29252 264.358 8.6887 270.522 17.1953 272.741C22.2411 274.061 27.5861 274.725 32.8421 275.009C42.2139 275.511 51.61 275.454 60.9981 275.714C72.4481 276.038 83.8819 276.912 95.3561 275.851C101.647 275.268 108.003 275.171 114.326 274.904C120.925 274.628 127.531 274.466 134.137 274.175C137.485 274.029 138.892 275.39 138.14 278.346C136.28 285.66 134.493 292.991 132.48 300.272C129.528 310.948 126.302 321.567 123.391 332.258C121.224 340.221 118.935 348.118 114.464 355.327C110.898 361.078 107.057 366.585 100.75 370.255C94.2241 374.053 87.9088 378.168 81.262 381.789C78.1164 383.506 74.4939 384.583 70.9683 385.62C65.3242 387.272 59.583 388.649 53.3 390.294C54.6666 390.504 55.6369 390.763 56.6073 390.78C67.0303 390.966 77.4534 391.185 87.8845 391.257C93.561 391.298 99.2375 391.047 104.906 391.006C110.857 390.966 116.817 391.104 122.768 391.006C133.191 390.836 143.622 390.569 154.045 390.294C164.274 390.018 174.52 389.84 184.741 389.338C196.716 388.747 208.716 388.204 220.627 386.989C233.904 385.628 245.136 380.874 250.133 368.319C254.12 358.299 256.117 347.867 256.821 337.272C257.104 333.044 256.473 328.759 256.133 324.515C255.891 321.559 257.023 320.23 260.322 320.052C261.527 319.987 262.748 320.036 263.961 320.044L305.281 320.125C330.299 320.173 350.596 317.922 350.531 292.861C350.41 245.882 350.28 162.948 350.119 142.399V142.415ZM137.129 264.73C136.943 265.459 135.512 266.488 134.72 266.439C128.695 266.042 122.833 265.524 117.48 262.146C108.213 256.298 99.7388 249.681 92.1783 242.099C77.1542 228.305 81.7633 174.126 81.7876 155.901C81.8037 145.209 82.5962 132.873 91.1837 126.507C95.9626 122.967 102.205 122.149 108.148 122.076C115.07 121.995 122.307 122.87 128.089 126.685C139.523 134.218 137.517 153.196 137.728 165.143C138.083 185.708 138.245 236.413 138.35 256.979C138.366 259.571 137.784 262.195 137.129 264.73ZM253.246 293.485C251.419 296.522 249.381 296.749 247.61 293.695C244.061 287.564 240.559 281.319 238.053 274.798C228.681 250.385 219.527 225.892 210.713 201.309C208.126 194.092 206.961 186.454 209.29 178.824C210.689 174.231 213.94 171.25 219.082 170.384C224.355 169.493 228.721 171.153 232.004 175.041C237.373 181.416 238.869 189.102 240.373 196.708C242.775 208.906 244.99 221.129 247.093 233.376C248.136 239.435 248.751 245.558 249.551 251.657L252.931 277.739C253.457 281.375 254.241 284.988 254.508 288.633C254.629 290.228 254.104 292.067 253.246 293.485ZM320.176 124.522C318.194 126.782 315.761 128.167 314.37 128.977C305.588 133.87 294.866 137.361 284.782 137.174C276.276 137.02 267.802 135.344 259.853 132.282C253.594 129.868 245.371 127.754 245.702 119.744C245.856 115.985 247.238 112.826 249.179 109.991C253.295 103.965 259.998 101.859 266.775 100.353C274.699 98.5868 282.801 97.5824 290.92 97.3475C296.168 97.2017 299.435 97.8902 304.197 100.085C308.734 102.175 313.076 104.645 317.394 107.148C318.057 107.537 318.688 108.039 319.294 108.558C321.138 110.137 322.569 112.105 323.078 114.867C323.814 118.836 322.48 121.906 320.176 124.522Z" fill="black"/>
</svg>